# xmcd
#
# Track frame offsets: 
#        150
#        13332
#        27476
#        43167
#        52910
#        66025
#        78940
#        93538
#        108485
#        123077
#        136863
#        150722
#        164887
#        176214
#        188176
#        203454
#        215476
#        228751
#        242421
#        255935
#
# Disc length: 3569 seconds
#
# Revision: 2
# Processed by: cddbd v1.5.2PL0 Copyright (c) Steve Scherf et al.
# Submitted via: ExactAudioCopy v0.90b4
#
DISCID=0b0def14
DTITLE=Billie Holiday - Billie Holiday [CD1]
DYEAR=2003
DGENRE=Jazz
TTITLE0=Summertime
TTITLE1=Carelessly
TTITLE2=Stormy Weather
TTITLE3=I'm Gonna Lock My Heart (And Throw Away The Key)
TTITLE4=I've Got My Love To Keep Me Warm
TTITLE5=A Fine Romance
TTITLE6=Who Loves You?
TTITLE7=These Foolish Things
TTITLE8=If You Were Mine
TTITLE9=Let's Call A Heart A Heart
TTITLE10=Twenty Four Hours A Day
TTITLE11=Mean To Me
TTITLE12=I Loves You Porgy
TTITLE13=He's Funny That Way
TTITLE14=Loverman
TTITLE15=Billie's Blues
TTITLE16=God Bless The Child
TTITLE17=Foolin' Myself
TTITLE18=Body And Soul
TTITLE19=No Regrets
EXTD=YEAR: 2003
EXTT0=
EXTT1=
EXTT2=
EXTT3=
EXTT4=
EXTT5=
EXTT6=
EXTT7=
EXTT8=
EXTT9=
EXTT10=
EXTT11=
EXTT12=
EXTT13=
EXTT14=
EXTT15=
EXTT16=
EXTT17=
EXTT18=
EXTT19=
PLAYORDER=
